# xmcd
#
# Track frame offsets: 
#        150
#        20499
#        42300
#        62661
#        81790
#        95261
#        119361
#        139386
#        157899
#        177252
#        205097
#        225179
#        251901
#
# Disc length: 3671 seconds
#
# Revision: 13
# Processed by: cddbd v1.5.2PL0 Copyright (c) Steve Scherf et al.
# Submitted via: ExactAudioCopyFreeDBPlugin 1.0
#
DISCID=a50e550d
DTITLE=John Mayall and Friends - Along For The Ride
DYEAR=2001
DGENRE=Blues
TTITLE0=A World of Hurt
TTITLE1=Along for the Ride
TTITLE2=Put It Right Back
TTITLE3=That's Why I Love You So
TTITLE4=Yo Yo Man
TTITLE5=If I Don't Get Home
TTITLE6=Testify
TTITLE7=Early in the Morning
TTITLE8=Something About My Baby
TTITLE9=So Many Roads
TTITLE10=World War Blues
TTITLE11=California
TTITLE12=She Don't Play By the Rules
EXTD=YEAR: 2001
EXTT0=
EXTT1=
EXTT2=
EXTT3=
EXTT4=
EXTT5=
EXTT6=
EXTT7=
EXTT8=
EXTT9=
EXTT10=
EXTT11=
EXTT12=
PLAYORDER=
